<?xml version="1.0" standalone="no"?>
<!DOCTYPE svg PUBLIC "-//W3C//DTD SVG 20010904//EN"
 "http://www.w3.org/TR/2001/REC-SVG-20010904/DTD/svg10.dtd">
<svg version="1.0" xmlns="http://www.w3.org/2000/svg"
 width="944.000000pt" height="198.000000pt" viewBox="0 0 944.000000 198.000000"
 preserveAspectRatio="xMidYMid meet">

<g transform="translate(0.000000,198.000000) scale(0.100000,-0.100000)"
fill="#000000" stroke="none">
<path d="M659 1387 c-139 -47 -194 -115 -193 -237 0 -149 86 -218 296 -240
106 -11 155 -34 150 -71 -5 -43 -27 -54 -105 -54 -40 0 -89 4 -109 8 -37 8
-38 9 -38 52 0 50 7 47 -105 45 -38 -1 -75 -6 -82 -12 -13 -11 -19 -152 -7
-182 11 -28 98 -74 179 -95 63 -16 101 -20 175 -17 107 5 163 22 233 69 106
72 128 231 45 331 -53 64 -138 96 -297 112 -79 7 -111 26 -111 64 0 46 114 77
184 50 21 -8 26 -16 26 -44 0 -20 6 -36 15 -39 8 -4 53 -3 100 0 l85 6 0 91 0
91 -35 24 c-99 67 -285 89 -406 48z"/>
<path d="M1500 1396 c-128 -28 -240 -117 -280 -222 -35 -89 -39 -230 -10 -325
18 -60 31 -82 78 -132 64 -66 96 -85 196 -116 116 -36 273 -24 378 30 139 71
219 233 204 414 -11 129 -96 264 -198 316 -92 47 -247 62 -368 35z m221 -199
c27 -14 57 -42 77 -71 29 -43 32 -56 32 -120 0 -86 -25 -144 -82 -190 -96 -76
-265 -26 -316 94 -23 55 -20 141 9 196 27 53 57 79 115 99 58 21 115 18 165
-8z"/>
<path d="M2455 1394 c-98 -24 -199 -90 -238 -157 -36 -61 -67 -171 -67 -236 0
-67 23 -168 49 -219 81 -157 343 -244 547 -181 124 38 193 95 251 210 25 50
27 63 27 184 1 128 0 131 -32 193 -39 76 -91 135 -146 167 -88 52 -265 69
-391 39z m195 -181 c47 -9 125 -87 139 -138 24 -88 8 -166 -47 -227 -59 -65
-125 -82 -217 -57 -52 15 -119 82 -134 134 -49 179 81 324 259 288z"/>
<path d="M4630 1396 c-116 -22 -232 -99 -286 -192 -56 -96 -55 -324 2 -421 58
-99 138 -160 238 -183 27 -6 94 -11 148 -11 136 0 241 34 305 97 l44 44 -3
152 -3 153 -185 3 c-165 2 -186 1 -197 -15 -16 -20 -17 -92 -3 -129 l10 -27
89 7 c96 8 107 3 97 -39 -9 -34 -90 -60 -159 -51 -58 8 -112 29 -141 54 -50
44 -70 157 -44 244 29 99 139 155 256 130 30 -6 57 -14 59 -16 3 -2 7 -22 10
-44 6 -47 17 -52 108 -52 86 0 89 4 90 101 l0 82 -40 32 c-105 85 -233 111
-395 81z"/>
<path d="M5465 1394 c-98 -24 -199 -90 -238 -157 -36 -61 -67 -171 -67 -236 0
-67 23 -168 49 -219 81 -157 343 -244 547 -181 124 38 193 95 251 210 25 50
27 63 27 184 1 128 0 131 -32 193 -39 76 -91 135 -146 167 -88 52 -265 69
-391 39z m195 -181 c47 -9 125 -87 139 -138 24 -88 8 -166 -47 -227 -59 -65
-125 -82 -217 -57 -52 15 -119 82 -134 134 -49 179 81 324 259 288z"/>
<path d="M3093 1384 c-2 -6 -3 -46 -1 -90 l3 -79 39 -5 39 -5 3 -195 c2 -107
1 -203 -2 -212 -3 -11 -18 -18 -42 -20 l-37 -3 -7 -65 c-12 -118 -27 -110 207
-110 234 0 216 -9 207 108 l-5 71 -46 3 -46 3 0 50 0 50 98 -4 97 -3 0 96 0
95 -97 3 -98 3 -3 61 -3 61 93 6 c54 3 98 1 105 -5 6 -5 13 -24 15 -41 3 -31
4 -32 58 -35 30 -2 70 -1 88 3 l32 6 0 117 c0 64 -4 123 -9 131 -7 11 -72 14
-346 15 -235 1 -339 -2 -342 -10z"/>
<path d="M6104 1387 c-18 -10 -20 -147 -2 -165 7 -7 28 -12 48 -12 l36 0 -2
-202 c-1 -112 -2 -208 -3 -215 0 -6 -18 -13 -38 -15 l-38 -3 0 -85 0 -85 350
0 350 0 3 156 2 157 -32 4 c-18 3 -51 4 -73 3 -22 -2 -52 -3 -66 -4 -24 -1
-27 -5 -32 -57 -3 -31 -8 -59 -11 -62 -3 -3 -45 -6 -93 -6 l-88 -1 0 205 0
205 45 5 45 5 3 88 c2 65 0 87 -10 88 -53 6 -382 2 -394 -4z"/>
<path d="M7117 1394 c-16 -5 -17 -16 -15 -92 l3 -87 35 -5 c27 -4 34 -9 32
-23 -4 -22 -155 -350 -177 -383 -10 -16 -26 -24 -52 -26 l-38 -3 0 -85 0 -85
194 -3 c149 -2 196 1 203 10 11 19 10 116 -2 139 -6 10 -20 19 -31 19 -25 0
-34 22 -19 49 10 20 18 21 141 18 100 -2 133 -6 140 -18 16 -25 10 -48 -15
-55 -21 -5 -24 -13 -29 -71 -4 -43 -3 -71 5 -80 8 -11 50 -13 197 -11 l186 3
0 85 0 85 -38 3 c-47 4 -52 12 -128 194 -33 79 -84 190 -113 248 -29 58 -58
120 -64 138 l-11 32 -113 0 c-62 0 -149 2 -193 5 -44 2 -88 2 -98 -1z m309
-299 c14 -33 22 -65 20 -72 -7 -18 -105 -18 -112 0 -2 7 3 31 12 53 9 21 20
49 25 62 13 35 28 23 55 -43z"/>
<path d="M7973 1390 c-21 -8 -23 -16 -23 -72 0 -97 5 -108 51 -108 32 0 40 -4
44 -22 3 -13 4 -108 3 -213 l-3 -190 -45 -5 -45 -5 0 -85 0 -85 200 0 200 0 3
65 c4 94 -1 108 -43 112 l-35 3 -4 107 c-2 59 -1 110 2 113 3 2 15 -8 26 -24
12 -16 81 -109 155 -205 l133 -176 94 0 c62 0 95 4 100 12 5 7 7 144 7 305
l-2 293 39 0 c21 0 41 4 44 9 7 11 11 159 4 166 -7 7 -375 11 -381 5 -3 -3 -7
-45 -8 -95 l-4 -90 36 2 36 2 6 -107 c3 -59 3 -109 0 -112 -6 -6 -55 52 -90
105 -14 22 -49 67 -77 100 -29 33 -73 90 -98 126 -46 64 -48 66 -100 72 -75 9
-199 7 -225 -3z"/>
</g>
</svg>
